<?xml version="1.0" encoding="UTF-8" standalone="no" ?>
<!DOCTYPE svg PUBLIC "-//W3C//DTD SVG 1.1//EN" "http://www.w3.org/Graphics/SVG/1.1/DTD/svg11.dtd">
<svg xmlns="http://www.w3.org/2000/svg" xmlns:xlink="http://www.w3.org/1999/xlink" version="1.1" width="500" height="500" viewBox="0 0 500 500" xml:space="preserve">
<desc>Created with Fabric.js 5.3.0</desc>
<defs>
</defs>
<g transform="matrix(2.4034991735 0 0 2.4034991735 177.5380688525 250.1510499427)" id="g_slx5grm9y5RNbLOerLe"  >
<path style="stroke: rgb(79,197,131); stroke-width: 0; stroke-dasharray: none; stroke-linecap: butt; stroke-dashoffset: 0; stroke-linejoin: miter; stroke-miterlimit: 4; fill: rgb(118,88,152); fill-rule: nonzero; opacity: 1;" vector-effect="non-scaling-stroke"  transform=" translate(0, 0)" d="M -67.00754 -38.57865 C -67.00754 -54.27949 -54.27949000000001 -67.00754 -38.57865000000001 -67.00754 L 38.578649999999996 -67.00754 L 38.578649999999996 -67.00754 C 54.279489999999996 -67.00754 67.00753999999999 -54.27949000000001 67.00753999999999 -38.57865000000001 L 67.00753999999999 38.578649999999996 L 67.00753999999999 38.578649999999996 C 67.00753999999999 54.279489999999996 54.279489999999996 67.00753999999999 38.578649999999996 67.00753999999999 L -38.57865000000001 67.00753999999999 L -38.57865000000001 67.00753999999999 C -54.27949000000001 67.00753999999999 -67.00754 54.279489999999996 -67.00754 38.578649999999996 z" stroke-linecap="round" />
</g>
<g transform="matrix(2.4034991735 0 0 2.4034991735 177.5380748948 250.1510456546)" id="ibfEmqC-f4s5yq7Gea_FG"  >
<path style="stroke: rgb(79,197,131); stroke-width: 0; stroke-dasharray: none; stroke-linecap: butt; stroke-dashoffset: 0; stroke-linejoin: miter; stroke-miterlimit: 4; fill: rgb(118,88,152); fill-rule: nonzero; opacity: 1;" vector-effect="non-scaling-stroke"  transform=" translate(0, 0)" d="M -67.00754 -38.57865 C -67.00754 -54.27949 -54.27949000000001 -67.00754 -38.57865000000001 -67.00754 L 38.578649999999996 -67.00754 L 38.578649999999996 -67.00754 C 54.279489999999996 -67.00754 67.00753999999999 -54.27949000000001 67.00753999999999 -38.57865000000001 L 67.00753999999999 38.578649999999996 L 67.00753999999999 38.578649999999996 C 67.00753999999999 54.279489999999996 54.279489999999996 67.00753999999999 38.578649999999996 67.00753999999999 L -38.57865000000001 67.00753999999999 L -38.57865000000001 67.00753999999999 C -54.27949000000001 67.00753999999999 -67.00754 54.279489999999996 -67.00754 38.578649999999996 z" stroke-linecap="round" />
</g>
<g transform="matrix(2.4034991735 0 0 2.4541752257 322.4619311453 250.1510269477)" id="PVIVB15QP8mpQf4rt9HIp"  >
<path style="stroke: rgb(79,197,131); stroke-width: 0; stroke-dasharray: none; stroke-linecap: butt; stroke-dashoffset: 0; stroke-linejoin: miter; stroke-miterlimit: 4; fill: rgb(0,0,0); fill-rule: nonzero; opacity: 1;" vector-effect="non-scaling-stroke"  transform=" translate(0, -0.000005)" d="M -67.00754 -39.16567 C -67.00754 -54.54231 -54.27949000000001 -67.00753 -38.57865000000001 -67.00753 L 38.578649999999996 -67.00753 L 38.578649999999996 -67.00753 C 54.279489999999996 -67.00753 67.00753999999999 -54.542300000000004 67.00753999999999 -39.165670000000006 L 67.00753999999999 39.165679999999995 L 67.00753999999999 39.165679999999995 C 67.00753999999999 54.54232 54.279489999999996 67.00753999999999 38.578649999999996 67.00753999999999 L -38.57865000000001 67.00753999999999 L -38.57865000000001 67.00753999999999 C -54.27949000000001 67.00753999999999 -67.00754 54.54230999999999 -67.00754 39.165679999999995 z" stroke-linecap="round" />
</g>
<g transform="matrix(1.400722352 0 0 1.4302555758 326.8788986346 249.8489774283)" id="lm2MR0hAINFYPmQdtnzyF"  >
<path style="stroke: rgb(79,197,131); stroke-width: 0; stroke-dasharray: none; stroke-linecap: butt; stroke-dashoffset: 0; stroke-linejoin: miter; stroke-miterlimit: 4; fill: rgb(230,230,230); fill-rule: nonzero; opacity: 1;" vector-effect="non-scaling-stroke"  transform=" translate(0, -0.000005)" d="M -67.00754 -39.16567 C -67.00754 -54.54231 -54.27949000000001 -67.00753 -38.57865000000001 -67.00753 L 38.578649999999996 -67.00753 L 38.578649999999996 -67.00753 C 54.279489999999996 -67.00753 67.00753999999999 -54.542300000000004 67.00753999999999 -39.165670000000006 L 67.00753999999999 39.165679999999995 L 67.00753999999999 39.165679999999995 C 67.00753999999999 54.54232 54.279489999999996 67.00753999999999 38.578649999999996 67.00753999999999 L -38.57865000000001 67.00753999999999 L -38.57865000000001 67.00753999999999 C -54.27949000000001 67.00753999999999 -67.00754 54.54230999999999 -67.00754 39.165679999999995 z" stroke-linecap="round" />
</g>
<g transform="matrix(2.4034991735 0 0 2.4541752256 177.5380688525 249.8489730497)" id="uquAdNBg0qpVFBYqDlX2q"  >
<path style="stroke: rgb(79,197,131); stroke-width: 0; stroke-dasharray: none; stroke-linecap: butt; stroke-dashoffset: 0; stroke-linejoin: miter; stroke-miterlimit: 4; fill: rgb(0,0,0); fill-rule: nonzero; opacity: 1;" vector-effect="non-scaling-stroke"  transform=" translate(0, -0.000005)" d="M -67.00754 -39.16567 C -67.00754 -54.54231 -54.27949000000001 -67.00753 -38.57865000000001 -67.00753 L 38.578649999999996 -67.00753 L 38.578649999999996 -67.00753 C 54.279489999999996 -67.00753 67.00753999999999 -54.542300000000004 67.00753999999999 -39.165670000000006 L 67.00753999999999 39.165679999999995 L 67.00753999999999 39.165679999999995 C 67.00753999999999 54.54232 54.279489999999996 67.00753999999999 38.578649999999996 67.00753999999999 L -38.57865000000001 67.00753999999999 L -38.57865000000001 67.00753999999999 C -54.27949000000001 67.00753999999999 -67.00754 54.54230999999999 -67.00754 39.165679999999995 z" stroke-linecap="round" />
</g>
<g transform="matrix(1.4335672743 0 0 1.4637930097 173.8358427908 247.6017119012)" id="8B5u4Le0LANaGq4juI_Uk"  >
<path style="stroke: rgb(79,197,131); stroke-width: 0; stroke-dasharray: none; stroke-linecap: butt; stroke-dashoffset: 0; stroke-linejoin: miter; stroke-miterlimit: 4; fill: rgb(240,240,240); fill-rule: nonzero; opacity: 1;" vector-effect="non-scaling-stroke"  transform=" translate(0, -0.000005)" d="M -67.00754 -39.16567 C -67.00754 -54.54231 -54.27949000000001 -67.00753 -38.57865000000001 -67.00753 L 38.578649999999996 -67.00753 L 38.578649999999996 -67.00753 C 54.279489999999996 -67.00753 67.00753999999999 -54.542300000000004 67.00753999999999 -39.165670000000006 L 67.00753999999999 39.165679999999995 L 67.00753999999999 39.165679999999995 C 67.00753999999999 54.54232 54.279489999999996 67.00753999999999 38.578649999999996 67.00753999999999 L -38.57865000000001 67.00753999999999 L -38.57865000000001 67.00753999999999 C -54.27949000000001 67.00753999999999 -67.00754 54.54230999999999 -67.00754 39.165679999999995 z" stroke-linecap="round" />
</g>
<g transform="matrix(0.6449084611 0 0 2.8663675951 222.3113918958 247.6017119012)" id="Us3Nq0yJwEDo2YbLBhVyw"  >
<path style="stroke: rgb(195,97,252); stroke-width: 0; stroke-dasharray: none; stroke-linecap: butt; stroke-dashoffset: 0; stroke-linejoin: miter; stroke-miterlimit: 4; fill: rgb(0,0,0); fill-rule: nonzero; opacity: 1;" vector-effect="non-scaling-stroke"  transform=" translate(0.000005, 0.000005)" d="M -26.91066 -26.91066 L 26.910649999999997 -26.91066 L 26.910649999999997 26.910649999999997 L -26.91066 26.910649999999997 z" stroke-linecap="round" />
</g>
<g transform="matrix(0.6449084611 0 0 1.8326283162 171.409904664 249.8489730497)" id="ToFYrzOMBvyEF642bjSRe"  >
<path style="stroke: rgb(195,97,252); stroke-width: 0; stroke-dasharray: none; stroke-linecap: butt; stroke-dashoffset: 0; stroke-linejoin: miter; stroke-miterlimit: 4; fill: rgb(0,0,0); fill-rule: nonzero; opacity: 1;" vector-effect="non-scaling-stroke"  transform=" translate(0.000005, 0.000005)" d="M -26.91066 -26.91066 L 26.910649999999997 -26.91066 L 26.910649999999997 26.910649999999997 L -26.91066 26.910649999999997 z" stroke-linecap="round" />
</g>
<g transform="matrix(0.6449084611 0 0 2.8663675951 121.0247640877 247.6017211882)" id="S2_mYAkNykKzvKQ8jhRLC"  >
<path style="stroke: rgb(195,97,252); stroke-width: 0; stroke-dasharray: none; stroke-linecap: butt; stroke-dashoffset: 0; stroke-linejoin: miter; stroke-miterlimit: 4; fill: rgb(0,0,0); fill-rule: nonzero; opacity: 1;" vector-effect="non-scaling-stroke"  transform=" translate(0.000005, 0.000005)" d="M -26.91066 -26.91066 L 26.910649999999997 -26.91066 L 26.910649999999997 26.910649999999997 L -26.91066 26.910649999999997 z" stroke-linecap="round" />
</g>
</svg>